<?xml version="1.0" encoding="UTF-8" standalone="no"?>
<!DOCTYPE svg PUBLIC "-//W3C//DTD SVG 1.1//EN" "http://www.w3.org/Graphics/SVG/1.1/DTD/svg11.dtd">
<svg width="100%" height="100%" viewBox="0 0 26 26" version="1.1" xmlns="http://www.w3.org/2000/svg" xmlns:xlink="http://www.w3.org/1999/xlink" xml:space="preserve" xmlns:serif="http://www.serif.com/" style="fill-rule:evenodd;clip-rule:evenodd;stroke-linejoin:round;stroke-miterlimit:1.41421;">
    <path d="M1.625,13C1.625,12.785 1.711,12.578 1.863,12.426C2.015,12.273 2.222,12.188 2.438,12.188L21.601,12.188L16.487,7.075C16.412,7 16.352,6.91 16.311,6.811C16.27,6.713 16.249,6.607 16.249,6.5C16.249,6.393 16.27,6.287 16.311,6.189C16.352,6.09 16.412,6 16.487,5.925C16.563,5.849 16.653,5.789 16.751,5.748C16.85,5.708 16.956,5.687 17.063,5.687C17.169,5.687 17.275,5.708 17.374,5.748C17.473,5.789 17.562,5.849 17.638,5.925L24.138,12.425C24.213,12.5 24.273,12.59 24.314,12.689C24.355,12.787 24.377,12.893 24.377,13C24.377,13.107 24.355,13.213 24.314,13.312C24.273,13.41 24.213,13.5 24.138,13.575L17.638,20.075C17.562,20.151 17.473,20.211 17.374,20.252C17.275,20.293 17.169,20.314 17.063,20.314C16.956,20.314 16.85,20.293 16.751,20.252C16.653,20.211 16.563,20.151 16.487,20.075C16.412,20 16.352,19.91 16.311,19.811C16.27,19.713 16.249,19.607 16.249,19.5C16.249,19.393 16.27,19.287 16.311,19.189C16.352,19.09 16.412,19 16.487,18.925L21.601,13.813L2.438,13.813C2.222,13.813 2.015,13.727 1.863,13.575C1.711,13.422 1.625,13.216 1.625,13Z" style="fill:white;"/>
</svg>
