<?xml version="1.0" encoding="UTF-8" standalone="no"?>
<!DOCTYPE svg PUBLIC "-//W3C//DTD SVG 1.1//EN" "http://www.w3.org/Graphics/SVG/1.1/DTD/svg11.dtd">
<svg width="100%" height="100%" viewBox="0 0 24 24" version="1.1" xmlns="http://www.w3.org/2000/svg" xmlns:xlink="http://www.w3.org/1999/xlink" xml:space="preserve" xmlns:serif="http://www.serif.com/" style="fill-rule:evenodd;clip-rule:evenodd;stroke-linejoin:round;stroke-miterlimit:1.41421;">
    <g transform="matrix(1.2,0,0,1.2,0,0)">
        <path d="M10,18.75C9.834,18.75 9.675,18.684 9.558,18.567C9.441,18.45 9.375,18.291 9.375,18.125L9.375,3.384L5.443,7.318C5.325,7.435 5.166,7.501 5,7.501C4.834,7.501 4.675,7.435 4.558,7.318C4.44,7.2 4.374,7.041 4.374,6.875C4.374,6.709 4.44,6.55 4.558,6.433L9.558,1.433C9.616,1.374 9.685,1.328 9.761,1.297C9.836,1.265 9.918,1.249 10,1.249C10.082,1.249 10.164,1.265 10.24,1.297C10.316,1.328 10.384,1.374 10.443,1.433L15.443,6.433C15.56,6.55 15.626,6.709 15.626,6.875C15.626,7.041 15.56,7.2 15.443,7.318C15.325,7.435 15.166,7.501 15,7.501C14.834,7.501 14.675,7.435 14.558,7.318L10.625,3.384L10.625,18.125C10.625,18.291 10.559,18.45 10.442,18.567C10.325,18.684 10.166,18.75 10,18.75Z" style="fill:rgb(239,72,72);"/>
    </g>
</svg>
