<?xml version="1.0" encoding="UTF-8" standalone="no"?>
<!DOCTYPE svg PUBLIC "-//W3C//DTD SVG 1.1//EN" "http://www.w3.org/Graphics/SVG/1.1/DTD/svg11.dtd">
<svg width="100%" height="100%" viewBox="0 0 26 26" version="1.1" xmlns="http://www.w3.org/2000/svg" xmlns:xlink="http://www.w3.org/1999/xlink" xml:space="preserve" xmlns:serif="http://www.serif.com/" style="fill-rule:evenodd;clip-rule:evenodd;stroke-linejoin:round;stroke-miterlimit:1.41421;">
    <path d="M24.375,13C24.375,12.785 24.289,12.578 24.137,12.426C23.985,12.273 23.778,12.188 23.563,12.188L4.399,12.188L9.513,7.075C9.588,7 9.648,6.91 9.689,6.811C9.73,6.713 9.751,6.607 9.751,6.5C9.751,6.393 9.73,6.287 9.689,6.189C9.648,6.09 9.588,6 9.513,5.925C9.437,5.849 9.348,5.789 9.249,5.748C9.15,5.708 9.044,5.687 8.937,5.687C8.831,5.687 8.725,5.708 8.626,5.748C8.527,5.789 8.438,5.849 8.362,5.925L1.862,12.425C1.787,12.5 1.727,12.59 1.686,12.689C1.645,12.787 1.624,12.893 1.624,13C1.624,13.107 1.645,13.213 1.686,13.312C1.727,13.41 1.787,13.5 1.862,13.575L8.362,20.075C8.438,20.151 8.527,20.211 8.626,20.252C8.725,20.293 8.831,20.314 8.937,20.314C9.044,20.314 9.15,20.293 9.249,20.252C9.348,20.211 9.437,20.151 9.513,20.075C9.588,20 9.648,19.91 9.689,19.811C9.73,19.713 9.751,19.607 9.751,19.5C9.751,19.393 9.73,19.287 9.689,19.189C9.648,19.09 9.588,19 9.513,18.925L4.399,13.813L23.563,13.813C23.778,13.813 23.985,13.727 24.137,13.575C24.289,13.422 24.375,13.216 24.375,13Z" style="fill:rgb(239,72,72);"/>
</svg>
