<svg width="26" height="26" viewBox="0 0 26 26" fill="none" xmlns="http://www.w3.org/2000/svg">
<path fill-rule="evenodd" clip-rule="evenodd" d="M1.62501 13C1.62501 12.7846 1.71061 12.5779 1.86299 12.4255C2.01536 12.2732 2.22202 12.1875 2.43751 12.1875H21.6011L16.4873 7.0753C16.4117 6.99976 16.3518 6.91007 16.3109 6.81137C16.27 6.71267 16.249 6.60688 16.249 6.50005C16.249 6.39322 16.27 6.28743 16.3109 6.18873C16.3518 6.09003 16.4117 6.00034 16.4873 5.9248C16.5628 5.84926 16.6525 5.78933 16.7512 5.74845C16.8499 5.70757 16.9557 5.68652 17.0625 5.68652C17.1693 5.68652 17.2751 5.70757 17.3738 5.74845C17.4725 5.78933 17.5622 5.84926 17.6378 5.9248L24.1378 12.4248C24.2134 12.5003 24.2735 12.5899 24.3144 12.6886C24.3554 12.7874 24.3765 12.8932 24.3765 13C24.3765 13.1069 24.3554 13.2127 24.3144 13.3115C24.2735 13.4102 24.2134 13.4998 24.1378 13.5753L17.6378 20.0753C17.5622 20.1508 17.4725 20.2108 17.3738 20.2516C17.2751 20.2925 17.1693 20.3136 17.0625 20.3136C16.9557 20.3136 16.8499 20.2925 16.7512 20.2516C16.6525 20.2108 16.5628 20.1508 16.4873 20.0753C16.4117 19.9998 16.3518 19.9101 16.3109 19.8114C16.27 19.7127 16.249 19.6069 16.249 19.5C16.249 19.3932 16.27 19.2874 16.3109 19.1887C16.3518 19.09 16.4117 19.0003 16.4873 18.9248L21.6011 13.8125H2.43751C2.22202 13.8125 2.01536 13.7269 1.86299 13.5746C1.71061 13.4222 1.62501 13.2155 1.62501 13Z" fill="#929292"/>
</svg>
