<?xml version="1.0" encoding="UTF-8" standalone="no"?>
<!DOCTYPE svg PUBLIC "-//W3C//DTD SVG 1.1//EN" "http://www.w3.org/Graphics/SVG/1.1/DTD/svg11.dtd">
<svg width="100%" height="100%" viewBox="0 0 24 24" version="1.1" xmlns="http://www.w3.org/2000/svg" xmlns:xlink="http://www.w3.org/1999/xlink" xml:space="preserve" xmlns:serif="http://www.serif.com/" style="fill-rule:evenodd;clip-rule:evenodd;stroke-linejoin:round;stroke-miterlimit:1.41421;">
    <g transform="matrix(1.2,0,0,1.2,0,0)">
        <path d="M10,1.25C9.834,1.25 9.675,1.316 9.558,1.433C9.441,1.55 9.375,1.709 9.375,1.875L9.375,16.616L5.443,12.682C5.325,12.565 5.166,12.499 5,12.499C4.834,12.499 4.675,12.565 4.558,12.682C4.44,12.8 4.374,12.959 4.374,13.125C4.374,13.291 4.44,13.45 4.558,13.568L9.558,18.568C9.616,18.626 9.685,18.672 9.761,18.703C9.836,18.735 9.918,18.751 10,18.751C10.082,18.751 10.164,18.735 10.24,18.703C10.316,18.672 10.384,18.626 10.443,18.568L15.443,13.568C15.56,13.45 15.626,13.291 15.626,13.125C15.626,12.959 15.56,12.8 15.443,12.682C15.325,12.565 15.166,12.499 15,12.499C14.834,12.499 14.675,12.565 14.558,12.682L10.625,16.616L10.625,1.875C10.625,1.709 10.559,1.55 10.442,1.433C10.325,1.316 10.166,1.25 10,1.25Z" style="fill:rgb(239,72,72);"/>
    </g>
</svg>
