<svg width="49" height="49" viewBox="0 0 49 49" fill="none" xmlns="http://www.w3.org/2000/svg">
<path d="M14.406 4.93676L16.7887 4.22013C18.0939 3.82655 19.4977 3.9213 20.7382 4.48669C21.9787 5.05209 22.9711 6.04951 23.5302 7.29284L25.3718 11.3884C25.8526 12.4579 25.9864 13.651 25.7547 14.8003C25.5229 15.9497 24.9371 16.9977 24.0794 17.7972L21.0292 20.6413C20.94 20.7243 20.8835 20.8366 20.8699 20.9577C20.7801 21.7683 21.3293 23.3465 22.5952 25.5413C23.5159 27.1358 24.351 28.2567 25.0595 28.8835C25.5535 29.3224 25.8251 29.4163 25.9415 29.3837L30.0452 28.1281C31.1659 27.7853 32.3658 27.8017 33.4766 28.1752C34.5875 28.5487 35.5536 29.2604 36.2396 30.2106L38.855 33.8366C39.6503 34.9392 40.0185 36.293 39.8912 37.6466C39.7639 39.0002 39.1498 40.2617 38.1629 41.1968L36.354 42.9118C35.3939 43.8209 34.2147 44.466 32.9313 44.784C31.6479 45.1021 30.304 45.0824 29.0305 44.7268C23.4077 43.1568 18.3669 38.4119 13.8507 30.5903C9.3284 22.7585 7.74203 16.0128 9.20386 10.3513C9.53293 9.07794 10.1844 7.91086 11.0956 6.9625C12.0068 6.01414 13.1469 5.31648 14.406 4.93676ZM15.2901 7.87064C14.5348 8.09819 13.8509 8.51639 13.3041 9.08495C12.7573 9.65352 12.3662 10.3533 12.1684 11.1169C10.9393 15.8781 12.346 21.8581 16.5028 29.0591C20.6535 36.2498 25.1227 40.4556 29.8553 41.7786C30.6192 41.9914 31.4251 42.0028 32.1947 41.8117C32.9643 41.6207 33.6713 41.2337 34.247 40.6884L36.0579 38.9734C36.5067 38.5483 36.7859 37.9748 36.8438 37.3593C36.9016 36.7439 36.7341 36.1283 36.3723 35.6271L33.759 32.0031C33.4471 31.5707 33.0077 31.2468 32.5024 31.0769C31.9971 30.907 31.4512 30.8996 30.9415 31.0558L26.8275 32.3155C24.4388 33.026 22.2705 31.1048 19.943 27.0725C18.375 24.3571 17.6441 22.2542 17.8258 20.6188C17.9218 19.7695 18.3158 18.9855 18.9406 18.4016L21.9908 15.5575C22.3808 15.1941 22.6473 14.7177 22.7527 14.1952C22.8582 13.6727 22.7974 13.1303 22.5788 12.6441L20.7372 8.54847C20.4831 7.98376 20.0323 7.53072 19.4688 7.27379C18.9054 7.01686 18.2677 6.97356 17.6747 7.15197L15.2901 7.87064Z" fill="white"/>
</svg>
