<?xml version="1.0" encoding="UTF-8" standalone="no"?>
<!DOCTYPE svg PUBLIC "-//W3C//DTD SVG 1.1//EN" "http://www.w3.org/Graphics/SVG/1.1/DTD/svg11.dtd">
<svg width="100%" height="100%" viewBox="0 0 46 46" version="1.1" xmlns="http://www.w3.org/2000/svg" xmlns:xlink="http://www.w3.org/1999/xlink" xml:space="preserve" xmlns:serif="http://www.serif.com/" style="fill-rule:evenodd;clip-rule:evenodd;stroke-linejoin:round;stroke-miterlimit:1.41421;">
    <g transform="matrix(0.0717352,0,0,0.0717352,-5.72998,-6.13644)">
        <g transform="matrix(0.83835,0,0,1.08714,-42.0324,46.1846)">
            <path d="M214.936,409.511C212.299,407.404 208.403,409.244 208.403,412.619L208.403,444.106C208.403,506.978 372.208,532.235 464.109,493.844C494.349,481.199 511.002,463.544 511.002,444.106L511.002,412.619C511.002,409.244 507.106,407.404 504.469,409.511C442.946,458.656 277.696,459.645 214.936,409.511ZM214.937,259.266C212.3,257.158 208.403,258.997 208.403,262.373L208.403,295.079C209.536,308.505 222.852,322.724 244.525,333.465C302.975,362.44 416.305,362.502 474.881,333.465C496.553,322.724 509.87,308.505 511.002,295.079L511.002,262.373C511.002,258.996 507.105,257.158 504.468,259.266C442.359,308.907 276.943,308.825 214.937,259.266ZM510.972,217.176C510.411,198.138 493.828,180.864 464.109,168.439C387.702,136.521 263.949,148.706 222.551,188.669C200.229,210.226 202.015,237.6 244.525,258.668C302.972,287.642 416.305,287.705 474.881,258.668C491.401,250.481 511.979,235.304 510.972,217.176ZM214.936,334.062C212.299,331.955 208.403,333.794 208.403,337.17L208.403,370.53C209.536,383.957 222.852,398.175 244.525,408.916C302.977,437.891 416.305,437.952 474.881,408.916C496.553,398.175 509.87,383.957 511.002,370.53L511.002,337.17C511.002,333.794 507.106,331.955 504.469,334.062C442.95,383.202 277.708,384.204 214.936,334.062Z" style="fill:rgb(239,72,72);fill-rule:nonzero;"/>
        </g>
        <g transform="matrix(0.83835,0,0,1.14278,239.921,110.644)">
            <path d="M214.937,259.266C212.3,257.158 208.403,258.997 208.403,262.373L208.403,295.079C209.536,308.505 222.852,322.724 244.525,333.465C302.975,362.44 416.305,362.502 474.881,333.465C496.553,322.724 509.87,308.505 511.002,295.079L511.002,262.373C511.002,258.996 507.105,257.158 504.468,259.266C442.359,308.907 276.943,308.825 214.937,259.266ZM510.972,217.176C510.411,198.138 493.828,180.864 464.109,168.439C387.702,136.521 263.949,148.706 222.551,188.669C200.229,210.226 202.015,237.6 244.525,258.668C302.972,287.642 416.305,287.705 474.881,258.668C491.401,250.481 511.979,235.304 510.972,217.176ZM214.936,334.062C212.299,331.955 208.403,333.794 208.403,337.17L208.403,370.53C209.536,383.957 222.852,398.175 244.525,408.916C302.977,437.891 416.305,437.952 474.881,408.916C496.553,398.175 509.87,383.957 511.002,370.53L511.002,337.17C511.002,333.794 507.106,331.955 504.469,334.062C442.95,383.202 277.708,384.204 214.936,334.062Z" style="fill:rgb(239,72,72);fill-rule:nonzero;"/>
        </g>
    </g>
</svg>
