<svg xmlns="http://www.w3.org/2000/svg" width="24.095" height="25.09" viewBox="0 0 24.095 25.09">
  <g id="Group_9714" data-name="Group 9714" transform="translate(24.095 25.09) rotate(180)">
    <path id="Path_16717" data-name="Path 16717" d="M7.072,23.285q-3,0-6,0c-.791,0-1.045-.226-1.039-1.02.021-3.112-.13-6.227.078-9.334A9.99,9.99,0,0,1,2.338,7.4,30.047,30.047,0,0,1,4.984,4.387a1.529,1.529,0,0,0,.519-1.2c-.017-.538.032-1.078.026-1.616A1.388,1.388,0,0,1,6.362.134,1.648,1.648,0,0,1,8.081.393a2.022,2.022,0,0,1,.606.77A6.553,6.553,0,0,1,8.8,6.336a21.4,21.4,0,0,1-1.015,2.4c-.172.327-.03.462.271.491s.59.018.886.017c1.669,0,3.338-.011,5.008-.014A1.741,1.741,0,0,1,15.8,10.521a2.13,2.13,0,0,1-.863,2.465c-.436.232-.3.33-.008.533a1.866,1.866,0,0,1,.914,1.856,1.49,1.49,0,0,1-1.089,1.378c-.278.086-.471.135-.114.436a1.692,1.692,0,0,1-.273,2.944c-.217.132-.216.214-.053.384a1.659,1.659,0,0,1,.28,1.938,1.508,1.508,0,0,1-1.573.8c-1.982-.009-3.964,0-5.946,0Z" transform="translate(8.203 0)" fill="#fcc5cb"/>
    <path id="Path_16718" data-name="Path 16718" d="M6.482,6.534q0,2.711,0,5.423c0,.837-.22,1.056-1.044,1.056q-2.242,0-4.484,0c-.693,0-.949-.247-.95-.939Q0,6.521,0,.968C0,.273.259.009.939.006q2.294-.011,4.589,0c.69,0,.948.259.951.95C6.486,2.815,6.481,4.675,6.482,6.534Z" transform="translate(0 12.075)" fill="#f79da7" opacity="0.585"/>
  </g>
</svg>
