<svg width="49" height="49" viewBox="0 0 49 49" fill="none" xmlns="http://www.w3.org/2000/svg">
<path d="M10.7188 8.16666H38.2813C39.9762 8.16655 41.6068 8.815 42.8388 9.97899C44.0707 11.143 44.8105 12.7343 44.9065 14.4264L44.9167 14.8021V34.1979C44.9168 35.8928 44.2684 37.5234 43.1044 38.7554C41.9404 39.9873 40.3491 40.7272 38.657 40.8231L38.2813 40.8333H10.7188C9.02393 40.8334 7.39327 40.185 6.16132 39.021C4.92937 37.857 4.18954 36.2657 4.09358 34.5736L4.08337 34.1979V14.8021C4.08326 13.1072 4.73171 11.4765 5.8957 10.2446C7.05969 9.01266 8.65098 8.27282 10.3431 8.17687L10.7188 8.16666H38.2813H10.7188ZM41.8542 19.1365L25.2146 27.8953C25.0267 27.9945 24.8202 28.0536 24.6083 28.0687C24.3963 28.0838 24.1836 28.0547 23.9835 27.9831L23.7875 27.8973L7.14587 19.1386V34.1979C7.14591 35.0946 7.4831 35.9585 8.09051 36.6181C8.69793 37.2777 9.53115 37.6848 10.4248 37.7586L10.7188 37.7708H38.2813C39.1783 37.7707 40.0425 37.4333 40.7021 36.8254C41.3618 36.2176 41.7687 35.3839 41.842 34.4899L41.8542 34.1979V19.1365ZM38.2813 11.2292H10.7188C9.82211 11.2292 8.95822 11.5664 8.29862 12.1738C7.63901 12.7812 7.23191 13.6144 7.15812 14.5081L7.14587 14.8021V15.6779L24.5 24.8103L41.8542 15.6759V14.8021C41.8541 13.9051 41.5167 13.0409 40.9088 12.3813C40.301 11.7216 39.4673 11.3147 38.5732 11.2414L38.2813 11.2292Z" fill="white"/>
</svg>
