<svg width="15" height="15" viewBox="0 0 15 15" fill="none" xmlns="http://www.w3.org/2000/svg">
<path d="M3.32987 14.875H0.245969V4.94381H3.32987V14.875ZM1.78606 3.58912C0.800063 3.58912 0 2.77206 0 1.78606C0 1.31237 0.188174 0.858077 0.523126 0.523126C0.858077 0.188174 1.31237 0 1.78606 0C2.25976 0 2.71405 0.188174 3.049 0.523126C3.38395 0.858077 3.57212 1.31237 3.57212 1.78606C3.57212 2.77206 2.77206 3.58912 1.78606 3.58912ZM14.8718 14.875H11.7948V10.0406C11.7948 8.88834 11.7714 7.41094 10.1915 7.41094C8.58819 7.41094 8.34222 8.66256 8.34222 9.95775V14.875H5.2615V4.94381H8.21897V6.2985H8.262C8.67372 5.51809 9.67938 4.69466 11.1796 4.69466C14.3007 4.69466 14.8745 6.75006 14.8745 9.41959V14.875H14.8718Z" fill="#D7D7D7"/>
</svg>
