<?xml version="1.0" encoding="UTF-8" standalone="no"?>
<!DOCTYPE svg PUBLIC "-//W3C//DTD SVG 1.1//EN" "http://www.w3.org/Graphics/SVG/1.1/DTD/svg11.dtd">
<svg width="100%" height="100%" viewBox="0 0 24 24" version="1.1" xmlns="http://www.w3.org/2000/svg" xmlns:xlink="http://www.w3.org/1999/xlink" xml:space="preserve" xmlns:serif="http://www.serif.com/" style="fill-rule:evenodd;clip-rule:evenodd;stroke-linejoin:round;stroke-miterlimit:1.41421;">
    <g transform="matrix(0.046875,0,0,0.046875,0,0)">
        <path d="M243.519,505.32C246.301,509.493 250.985,512 256,512C261.015,512 265.699,509.494 268.481,505.32C303.98,452.073 356.267,386.312 392.703,319.431C421.837,265.955 436,220.346 436,180C436,80.748 355.252,0 256,0C156.748,0 76,80.748 76,180C76,220.346 90.163,265.955 119.297,319.431C155.706,386.261 208.093,452.183 243.519,505.32ZM256,30C338.71,30 406,97.29 406,180C406,215.204 393.033,256.118 366.359,305.079C334.952,362.728 290.134,421.207 256,470.369C221.871,421.214 177.05,362.731 145.641,305.079C118.967,256.118 106,215.204 106,180C106,97.29 173.29,30 256,30Z" style="fill:rgb(46,71,101);fill-rule:nonzero;"/>
        <path d="M256,270C305.626,270 346,229.626 346,180C346,130.374 305.626,90 256,90C206.374,90 166,130.374 166,180C166,229.626 206.374,270 256,270ZM256,120C289.084,120 316,146.916 316,180C316,213.084 289.084,240 256,240C222.916,240 196,213.084 196,180C196,146.916 222.916,120 256,120Z" style="fill:rgb(46,71,101);fill-rule:nonzero;"/>
    </g>
</svg>
