<svg width="213" height="45" viewBox="0 0 213 45" fill="none" xmlns="http://www.w3.org/2000/svg">
<g clip-path="url(#clip0_2_9)">
<path d="M62.8332 9C65.6042 9 67.9063 9.78438 69.7394 11.3532C71.5726 12.9219 72.8089 15.0492 73.4483 17.7352H69.5796C69.0467 16.214 68.194 15.0136 67.0217 14.1342C65.8707 13.2309 64.4531 12.7793 62.7692 12.7793C61.4264 12.7793 60.2221 13.1478 59.1562 13.8846C58.1118 14.6214 57.2805 15.6792 56.6623 17.0578C56.0655 18.4126 55.7671 20.0051 55.7671 21.8354C55.7671 23.6418 56.0655 25.2344 56.6623 26.613C57.2805 27.9678 58.1118 29.0137 59.1562 29.7505C60.2221 30.4874 61.4264 30.8558 62.7692 30.8558C64.4531 30.8558 65.8707 30.416 67.0217 29.5366C68.194 28.6334 69.0467 27.433 69.5796 25.9356H73.4483C72.8089 28.6215 71.5726 30.7488 69.7394 32.3176C67.9063 33.8626 65.6042 34.6351 62.8332 34.6351C60.7017 34.6351 58.8152 34.1003 57.1739 33.0307C55.5326 31.9373 54.2643 30.428 53.3691 28.5027C52.4738 26.5536 52.0262 24.3312 52.0262 21.8354C52.0262 19.3396 52.4738 17.1291 53.3691 15.2038C54.2643 13.2547 55.5326 11.7334 57.1739 10.6401C58.8152 9.54672 60.7017 9 62.8332 9ZM85.142 14.5263C86.8475 14.5263 88.3822 14.9305 89.7462 15.7386C91.1109 16.5467 92.1762 17.7115 92.9435 19.2327C93.7109 20.7539 94.0946 22.5365 94.0946 24.5807C94.0946 26.6487 93.7109 28.4433 92.9435 29.9645C92.1762 31.4857 91.1109 32.6504 89.7462 33.4585C88.3822 34.2667 86.8475 34.6708 85.142 34.6708C83.4373 34.6708 81.9026 34.2667 80.5379 33.4585C79.195 32.6504 78.1296 31.4857 77.3408 29.9645C76.5735 28.4194 76.1898 26.6249 76.1898 24.5807C76.1898 22.5365 76.5735 20.7539 77.3408 19.2327C78.1296 17.7115 79.195 16.5467 80.5379 15.7386C81.9026 14.9305 83.4373 14.5263 85.142 14.5263ZM85.142 18.0561C84.2047 18.0561 83.3414 18.2937 82.5522 18.7692C81.7638 19.2446 81.1243 19.9814 80.6338 20.9797C80.1651 21.9543 79.9304 23.1546 79.9304 24.5807C79.9304 26.0306 80.1651 27.2429 80.6338 28.2174C81.1243 29.192 81.7638 29.9169 82.5522 30.3923C83.3414 30.8677 84.2047 31.1054 85.142 31.1054C86.0802 31.1054 86.9434 30.8677 87.7319 30.3923C88.5211 29.9169 89.1496 29.192 89.6183 28.2174C90.1088 27.2429 90.3537 26.0306 90.3537 24.5807C90.3537 23.1546 90.1088 21.9543 89.6183 20.9797C89.1496 19.9814 88.5211 19.2446 87.7319 18.7692C86.9434 18.2937 86.0802 18.0561 85.142 18.0561ZM119.629 14.455C121.718 14.455 123.381 15.1919 124.617 16.6656C125.875 18.1393 126.503 20.2429 126.503 22.9763V34.4212H122.858V23.4042C122.858 21.6928 122.474 20.3736 121.707 19.4466C120.94 18.4958 119.885 18.0204 118.542 18.0204C117.114 18.0204 115.973 18.5315 115.121 19.5535C114.289 20.5518 113.874 22.0256 113.874 23.9746V34.4212H110.229V23.4042C110.229 21.6928 109.845 20.3736 109.078 19.4466C108.31 18.4958 107.255 18.0204 105.912 18.0204C104.484 18.0204 103.343 18.5315 102.491 19.5535C101.66 20.5518 101.244 22.0256 101.244 23.9746V34.4212H97.5992V14.7759H101.244V18.8761C101.692 17.45 102.438 16.3566 103.482 15.596C104.526 14.8353 105.752 14.455 107.159 14.455C108.63 14.455 109.898 14.8591 110.964 15.6673C112.051 16.4754 112.84 17.6401 113.33 19.1613C113.842 17.6876 114.662 16.5349 115.792 15.7029C116.922 14.871 118.201 14.455 119.629 14.455ZM140.863 14.5263C142.398 14.5263 143.762 14.9305 144.956 15.7386C146.171 16.5467 147.119 17.7115 147.801 19.2327C148.483 20.7539 148.824 22.5365 148.824 24.5807C148.824 26.6487 148.483 28.4433 147.801 29.9645C147.119 31.4857 146.171 32.6504 144.956 33.4585C143.762 34.2667 142.398 34.6708 140.863 34.6708C139.264 34.6708 137.9 34.231 136.77 33.3516C135.64 32.4721 134.852 31.3074 134.404 29.8575V43.7625H130.759V14.7759H134.404V19.3396C134.852 17.8897 135.64 16.725 136.77 15.8455C137.9 14.9661 139.264 14.5263 140.863 14.5263ZM139.744 18.0917C138.721 18.0917 137.804 18.365 136.994 18.9118C136.184 19.4347 135.545 20.1953 135.076 21.1936C134.606 22.1682 134.372 23.2972 134.372 24.5807C134.372 25.888 134.606 27.0289 135.076 28.0035C135.545 28.9781 136.184 29.7386 136.994 30.2853C137.804 30.8082 138.721 31.0697 139.744 31.0697C141.364 31.0697 142.664 30.4993 143.645 29.3583C144.625 28.1937 145.115 26.6011 145.115 24.5807C145.115 22.5841 144.625 21.0034 143.645 19.8388C142.664 18.6741 141.364 18.0917 139.744 18.0917ZM159.401 14.5263C161 14.5263 162.364 14.9661 163.494 15.8455C164.623 16.725 165.422 17.8897 165.892 19.3396V14.7759H169.537V34.4212H165.892V29.8575C165.422 31.3074 164.623 32.4721 163.494 33.3516C162.364 34.231 161 34.6708 159.401 34.6708C157.867 34.6708 156.492 34.2667 155.277 33.4585C154.083 32.6504 153.145 31.4857 152.463 29.9645C151.781 28.4433 151.44 26.6487 151.44 24.5807C151.44 22.5365 151.781 20.7539 152.463 19.2327C153.145 17.7115 154.083 16.5467 155.277 15.7386C156.492 14.9305 157.867 14.5263 159.401 14.5263ZM160.52 18.0917C158.9 18.0917 157.6 18.6741 156.62 19.8388C155.66 20.9797 155.181 22.5604 155.181 24.5807C155.181 26.6011 155.66 28.1937 156.62 29.3583C157.6 30.4993 158.9 31.0697 160.52 31.0697C161.544 31.0697 162.46 30.8082 163.27 30.2853C164.08 29.7386 164.719 28.9781 165.189 28.0035C165.657 27.0289 165.892 25.888 165.892 24.5807C165.892 23.2972 165.657 22.1682 165.189 21.1936C164.719 20.1953 164.08 19.4347 163.27 18.9118C162.46 18.365 161.544 18.0917 160.52 18.0917ZM183.759 14.455C185.805 14.455 187.446 15.1919 188.683 16.6656C189.919 18.1393 190.537 20.2429 190.537 22.9763V34.4212H186.892V23.4042C186.892 21.6452 186.487 20.2904 185.677 19.3396C184.867 18.365 183.759 17.8778 182.352 17.8778C180.902 17.8778 179.74 18.4007 178.867 19.4466C177.993 20.4686 177.556 21.978 177.556 23.9746V34.4212H173.911V14.7759H177.556V19.09C178.025 17.6163 178.813 16.4754 179.922 15.6673C181.03 14.8591 182.309 14.455 183.759 14.455ZM196.878 14.7759L202.154 29.2157L207.046 14.7759H211.106L200.459 43.7625H196.398L200.203 33.9577L192.785 14.7759H196.878Z" fill="#3F3F3F"/>
<path d="M40.1219 4H2.56091V40.96H40.1219V4Z" stroke="#3F3F3F" stroke-width="6"/>
<path d="M29.878 13.6H12.8048V30.4H29.878V13.6Z" fill="#EF4848"/>
</g>
<defs>
<clipPath id="clip0_2_9">
<rect width="213" height="45" fill="white"/>
</clipPath>
</defs>
</svg>
