<svg width="20" height="20" viewBox="0 0 20 20" fill="none" xmlns="http://www.w3.org/2000/svg">
<path d="M18.3333 15.0042C18.3333 15.4625 17.9617 15.8333 17.5042 15.8333H10.8292C10.6093 15.8333 10.3984 15.746 10.2429 15.5905C10.0874 15.435 10 15.2241 10 15.0042C10 14.7843 10.0874 14.5734 10.2429 14.4179C10.3984 14.2624 10.6093 14.175 10.8292 14.175H17.5042C17.9625 14.175 18.3333 14.5458 18.3333 15.0042Z" fill="#3F3F3F"/>
<path d="M18.3333 10C18.3333 10.4583 17.9616 10.8292 17.5041 10.8292H2.49579C2.27588 10.8292 2.06498 10.7418 1.90948 10.5863C1.75398 10.4308 1.66663 10.2199 1.66663 10C1.66663 9.7801 1.75398 9.56919 1.90948 9.41369C2.06498 9.2582 2.27588 9.17084 2.49579 9.17084H17.5041C17.9625 9.17084 18.3333 9.5425 18.3333 10Z" fill="#3F3F3F"/>
<path d="M17.5041 5.825C17.724 5.825 17.9349 5.73765 18.0904 5.58215C18.2459 5.42665 18.3333 5.21575 18.3333 4.99584C18.3333 4.77593 18.2459 4.56503 18.0904 4.40953C17.9349 4.25403 17.724 4.16667 17.5041 4.16667H7.49579C7.3869 4.16667 7.27908 4.18812 7.17848 4.22979C7.07789 4.27146 6.98648 4.33253 6.90948 4.40953C6.83249 4.48652 6.77141 4.57793 6.72974 4.67853C6.68807 4.77913 6.66663 4.88695 6.66663 4.99584C6.66663 5.10473 6.68807 5.21255 6.72974 5.31315C6.77141 5.41375 6.83249 5.50515 6.90948 5.58215C6.98648 5.65914 7.07789 5.72022 7.17848 5.76189C7.27908 5.80356 7.3869 5.825 7.49579 5.825H17.5041Z" fill="#3F3F3F"/>
</svg>
