<svg width="100" height="100" viewBox="0 0 100 100" fill="none" xmlns="http://www.w3.org/2000/svg">
<path d="M68.75 46.25C69.7446 46.25 70.6984 45.8549 71.4017 45.1516C72.1049 44.4484 72.5 43.4946 72.5 42.5V31.25C72.5 30.2554 72.1049 29.3016 71.4017 28.5983C70.6984 27.8951 69.7446 27.5 68.75 27.5H57.5C56.5055 27.5 55.5516 27.8951 54.8484 28.5983C54.1451 29.3016 53.75 30.2554 53.75 31.25V42.5C53.75 43.4946 54.1451 44.4484 54.8484 45.1516C55.5516 45.8549 56.5055 46.25 57.5 46.25H61.25V53.9375C59.4483 54.3049 57.7945 55.1941 56.4943 56.4943C55.1941 57.7945 54.305 59.4483 53.9375 61.25H46.25V57.5C46.25 56.5054 45.8549 55.5516 45.1517 54.8484C44.4484 54.1451 43.4946 53.75 42.5 53.75H38.75V46.0625C41.0264 45.5978 43.0491 44.3045 44.426 42.4333C45.803 40.562 46.4361 38.2461 46.2025 35.9346C45.969 33.6231 44.8856 31.4807 43.1622 29.9226C41.4388 28.3646 39.1983 27.5019 36.875 27.5019C34.5518 27.5019 32.3112 28.3646 30.5879 29.9226C28.8645 31.4807 27.781 33.6231 27.5475 35.9346C27.314 38.2461 27.9471 40.562 29.324 42.4333C30.701 44.3045 32.7237 45.5978 35 46.0625V53.75H31.25C30.2555 53.75 29.3016 54.1451 28.5984 54.8484C27.8951 55.5516 27.5 56.5054 27.5 57.5V68.75C27.5 69.7446 27.8951 70.6984 28.5984 71.4016C29.3016 72.1049 30.2555 72.5 31.25 72.5H42.5C43.4946 72.5 44.4484 72.1049 45.1517 71.4016C45.8549 70.6984 46.25 69.7446 46.25 68.75V65H53.9375C54.2767 66.6592 55.0589 68.1956 56.2011 69.4459C57.3434 70.6962 58.803 71.6137 60.4249 72.1011C62.0467 72.5884 63.7703 72.6273 65.4125 72.2136C67.0547 71.8 68.5543 70.9492 69.7517 69.7517C70.9492 68.5542 71.8 67.0547 72.2136 65.4125C72.6273 63.7703 72.5884 62.0467 72.1011 60.4248C71.6137 58.8029 70.6962 57.3434 69.4459 56.2011C68.1956 55.0589 66.6592 54.2766 65 53.9375V46.25H68.75ZM31.25 36.875C31.25 35.7625 31.5799 34.6749 32.198 33.7499C32.8161 32.8249 33.6946 32.1039 34.7224 31.6782C35.7503 31.2524 36.8813 31.141 37.9724 31.3581C39.0635 31.5751 40.0658 32.1109 40.8525 32.8975C41.6392 33.6842 42.1749 34.6865 42.3919 35.7776C42.609 36.8688 42.4976 37.9998 42.0718 39.0276C41.6461 40.0554 40.9251 40.9339 40.0001 41.552C39.0751 42.1701 37.9875 42.5 36.875 42.5C35.3832 42.5 33.9524 41.9074 32.8975 40.8525C31.8427 39.7976 31.25 38.3668 31.25 36.875ZM42.5 68.75H31.25V57.5H42.5V68.75ZM68.75 63.125C68.75 64.2375 68.4201 65.3251 67.802 66.2501C67.184 67.1751 66.3055 67.8961 65.2776 68.3218C64.2498 68.7476 63.1188 68.859 62.0276 68.6419C60.9365 68.4249 59.9342 67.8891 59.1475 67.1025C58.3609 66.3158 57.8251 65.3135 57.6081 64.2224C57.3911 63.1312 57.5025 62.0002 57.9282 60.9724C58.3539 59.9446 59.0749 59.0661 59.9999 58.448C60.925 57.8299 62.0125 57.5 63.125 57.5C64.6169 57.5 66.0476 58.0926 67.1025 59.1475C68.1574 60.2024 68.75 61.6332 68.75 63.125ZM57.5 31.25H68.75V42.5H57.5V31.25Z" fill="#EF4848"/>
</svg>
