<svg xmlns="http://www.w3.org/2000/svg" width="54" height="56" viewBox="0 0 54 56">
  <g id="Group_9717" data-name="Group 9717" transform="translate(-22.074 -27.029)">
    <ellipse id="Ellipse_168" data-name="Ellipse 168" cx="27" cy="28" rx="27" ry="28" transform="translate(22.074 27.029)" fill="#febe46"/>
    <g id="JvTfn5.tif" transform="translate(35.25 41.168)">
      <g id="Group_9647" data-name="Group 9647" transform="translate(0 0)">
        <path id="Path_16712" data-name="Path 16712" d="M470.486,709.671a4.95,4.95,0,0,1-1.1-1.045,1.278,1.278,0,0,1,.346-1.573,2.431,2.431,0,0,1,2.246-.342,1.375,1.375,0,0,1,.846,1.383,1.391,1.391,0,0,1-1.094,1.35c-.269.08-.54.152-.81.227Z" transform="translate(-455.172 -682.334)" fill="#ffebc4" opacity="0.605"/>
        <path id="Path_16713" data-name="Path 16713" d="M395.152,542.73c.361-.4.755-.885,1.2-1.317a.837.837,0,0,1,1.518.427q.84,3.235,1.618,6.486c.188.79-.3,1.286-1.1,1.1q-3.292-.757-6.566-1.594a.825.825,0,0,1-.4-1.481c.477-.5,1.008-.943,1.562-1.455a10.789,10.789,0,0,0-7.592-2.71,10.761,10.761,0,0,0-6.99,18.524c.892.9.847,2.1-.073,2.6a1.354,1.354,0,0,1-1.719-.233c-3.978-3.89-5.44-8.565-3.9-13.924a12.982,12.982,0,0,1,10.636-9.663,13.236,13.236,0,0,1,11.3,2.967c.092.075.19.144.287.213A1.5,1.5,0,0,0,395.152,542.73Z" transform="translate(-372.101 -539.223)" fill="#ffebc4"/>
        <path id="Path_16714" data-name="Path 16714" d="M456.692,585.4c0-.96-.009-1.919,0-2.879a1.464,1.464,0,1,1,2.91.028c.01,1.511.028,3.023-.01,4.534a1.063,1.063,0,0,0,.61,1.078c.912.529,1.795,1.108,2.679,1.684a1.4,1.4,0,0,1,.547,2.034,1.431,1.431,0,0,1-2.07.439c-1.327-.816-2.666-1.621-3.93-2.527a2.011,2.011,0,0,1-.7-1.3A30.565,30.565,0,0,1,456.692,585.4Z" transform="translate(-444.421 -574.872)" fill="#ffebc4"/>
        <path id="Path_16715" data-name="Path 16715" d="M507.18,693.529a1.464,1.464,0,0,1-1.5-1.484,2.226,2.226,0,0,1,1.973-1.838,1.513,1.513,0,0,1,1.47,1.461A2.15,2.15,0,0,1,507.18,693.529Z" transform="translate(-486.335 -668.341)" fill="#ffebc4" opacity="0.605"/>
        <path id="Path_16716" data-name="Path 16716" d="M432.03,704.051a1.888,1.888,0,0,1,2.083,1.565,1.461,1.461,0,0,1-1.49,1.505c-1.182-.015-2.024-.678-2.037-1.6A1.438,1.438,0,0,1,432.03,704.051Z" transform="translate(-422.115 -680.18)" fill="#ffebc4" opacity="0.605"/>
      </g>
    </g>
  </g>
</svg>
