<svg width="100" height="100" viewBox="0 0 100 100" fill="none" xmlns="http://www.w3.org/2000/svg">
<path d="M69.9545 46.5H65.608V32.1818C65.608 27.6626 61.9453 24 57.4261 24H41.5739C37.0547 24 33.392 27.6626 33.392 32.1818V46.5H29.0455C27.9141 46.5 27 47.4141 27 48.5455V73.0909C27 74.2223 27.9141 75.1364 29.0455 75.1364H69.9545C71.0859 75.1364 72 74.2223 72 73.0909V48.5455C72 47.4141 71.0859 46.5 69.9545 46.5ZM37.9943 32.1818C37.9943 30.2067 39.5987 28.6023 41.5739 28.6023H57.4261C59.4013 28.6023 61.0057 30.2067 61.0057 32.1818V46.5H37.9943V32.1818ZM67.3977 70.5341H31.6023V51.1023H67.3977V70.5341ZM47.7102 61.6491V65.0369C47.7102 65.3182 47.9403 65.5483 48.2216 65.5483H50.7784C51.0597 65.5483 51.2898 65.3182 51.2898 65.0369V61.6491C51.8174 61.2703 52.2112 60.7338 52.4146 60.1169C52.6179 59.5 52.6203 58.8345 52.4213 58.2162C52.2223 57.5979 51.8323 57.0586 51.3073 56.6761C50.7823 56.2936 50.1495 56.0875 49.5 56.0875C48.8504 56.0875 48.2176 56.2936 47.6927 56.6761C47.1677 57.0586 46.7777 57.5979 46.5787 58.2162C46.3797 58.8345 46.3821 59.5 46.5854 60.1169C46.7887 60.7338 47.1826 61.2703 47.7102 61.6491Z" fill="#EF4848"/>
</svg>
