<?xml version="1.0" encoding="UTF-8" standalone="no"?>
<!DOCTYPE svg PUBLIC "-//W3C//DTD SVG 1.1//EN" "http://www.w3.org/Graphics/SVG/1.1/DTD/svg11.dtd">
<svg width="100%" height="100%" viewBox="0 0 23 22" version="1.1" xmlns="http://www.w3.org/2000/svg" xmlns:xlink="http://www.w3.org/1999/xlink" xml:space="preserve" xmlns:serif="http://www.serif.com/" style="fill-rule:evenodd;clip-rule:evenodd;stroke-linejoin:round;stroke-miterlimit:1.41421;">
    <path d="M15.465,13.657L20.396,18.589C20.57,18.763 20.667,18.998 20.667,19.243C20.667,19.488 20.569,19.723 20.396,19.897C20.222,20.07 19.987,20.167 19.742,20.167C19.497,20.167 19.262,20.07 19.088,19.896L14.157,14.965C12.682,16.107 10.828,16.644 8.972,16.467C7.116,16.291 5.396,15.414 4.163,14.015C2.931,12.615 2.277,10.799 2.336,8.935C2.395,7.071 3.162,5.3 4.481,3.981C5.799,2.663 7.571,1.896 9.434,1.837C11.298,1.778 13.114,2.432 14.514,3.664C15.913,4.897 16.79,6.616 16.966,8.473C17.143,10.329 16.606,12.183 15.464,13.657L15.465,13.657ZM9.667,14.667C11.125,14.667 12.524,14.087 13.556,13.056C14.587,12.024 15.167,10.625 15.167,9.167C15.167,7.708 14.587,6.309 13.556,5.278C12.524,4.246 11.125,3.667 9.667,3.667C8.208,3.667 6.809,4.246 5.778,5.278C4.746,6.309 4.167,7.708 4.167,9.167C4.167,10.625 4.746,12.024 5.778,13.056C6.809,14.087 8.208,14.667 9.667,14.667Z" style="fill:white;"/>
</svg>
