<svg width="23" height="22" viewBox="0 0 23 22" fill="none" xmlns="http://www.w3.org/2000/svg">
<path fill-rule="evenodd" clip-rule="evenodd" d="M15.4646 13.6574L20.3962 18.5891C20.5696 18.7625 20.6669 18.9978 20.6668 19.243C20.6667 19.4882 20.5692 19.7234 20.3958 19.8967C20.2223 20.0701 19.9871 20.1674 19.7419 20.1673C19.4966 20.1672 19.2615 20.0697 19.0882 19.8963L14.1565 14.9646C12.6822 16.1065 10.8283 16.6438 8.97194 16.4673C7.11555 16.2908 5.39612 15.4138 4.16343 14.0146C2.93075 12.6153 2.2774 10.7991 2.3363 8.93525C2.39521 7.07143 3.16195 5.30004 4.48053 3.98146C5.79911 2.66288 7.5705 1.89614 9.43432 1.83724C11.2982 1.77833 13.1144 2.43168 14.5136 3.66436C15.9128 4.89705 16.7899 6.61648 16.9664 8.47287C17.1429 10.3293 16.6055 12.1832 15.4637 13.6574H15.4646ZM9.66666 14.6667C11.1253 14.6667 12.5243 14.0872 13.5557 13.0558C14.5872 12.0243 15.1667 10.6254 15.1667 9.16667C15.1667 7.70798 14.5872 6.30903 13.5557 5.27758C12.5243 4.24613 11.1253 3.66667 9.66666 3.66667C8.20797 3.66667 6.80902 4.24613 5.77757 5.27758C4.74612 6.30903 4.16666 7.70798 4.16666 9.16667C4.16666 10.6254 4.74612 12.0243 5.77757 13.0558C6.80902 14.0872 8.20797 14.6667 9.66666 14.6667Z" fill="#3F3F3F"/>
</svg>
