<?xml version="1.0" encoding="UTF-8" standalone="no"?>
<!DOCTYPE svg PUBLIC "-//W3C//DTD SVG 1.1//EN" "http://www.w3.org/Graphics/SVG/1.1/DTD/svg11.dtd">
<svg width="100%" height="100%" viewBox="0 0 24 24" version="1.1" xmlns="http://www.w3.org/2000/svg" xmlns:xlink="http://www.w3.org/1999/xlink" xml:space="preserve" xmlns:serif="http://www.serif.com/" style="fill-rule:evenodd;clip-rule:evenodd;stroke-linejoin:round;stroke-miterlimit:1.41421;">
    <g transform="matrix(0.046875,0,0,0.046875,0,0)">
        <path d="M483.576,136.84L259.576,24.84C257.326,23.716 254.674,23.716 252.424,24.84L28.424,136.84C25.716,138.193 23.999,140.973 24,144L24,368C23.983,371.042 25.703,373.84 28.424,375.2L252.424,487.2C254.674,488.324 257.326,488.324 259.576,487.2L483.576,375.2C486.297,373.84 488.017,371.042 488,368L488,144C488.001,140.973 486.284,138.193 483.576,136.84ZM256,247.056L193.464,215.784L393.352,109.6L462.152,144L256,247.056ZM129.464,183.784L329.352,77.6L375.752,100.8L175.888,207L129.464,183.784ZM120,196.944L168,220.944L168,284.688L149.656,266.344C148.157,264.844 146.121,264 144,264L120,264L120,196.944ZM256,40.944L311.776,68.8L111.888,175L49.888,144L256,40.944ZM40,156.944L104,188.944L104,272C104,276.389 107.611,280 112,280L140.688,280L170.344,309.656C171.844,311.155 173.879,311.998 176,311.998C180.388,311.998 183.999,308.388 184,304L184,228.944L248,260.944L248,467.056L40,363.056L40,156.944ZM264,467.056L264,260.944L472,156.944L472,363.056L264,467.056Z" style="fill:white;fill-rule:nonzero;"/>
    </g>
</svg>
