<?xml version="1.0" encoding="UTF-8" standalone="no"?>
<!DOCTYPE svg PUBLIC "-//W3C//DTD SVG 1.1//EN" "http://www.w3.org/Graphics/SVG/1.1/DTD/svg11.dtd">
<svg width="100%" height="100%" viewBox="0 0 24 24" version="1.1" xmlns="http://www.w3.org/2000/svg" xmlns:xlink="http://www.w3.org/1999/xlink" xml:space="preserve" xmlns:serif="http://www.serif.com/" style="fill-rule:evenodd;clip-rule:evenodd;stroke-linejoin:round;stroke-miterlimit:1.41421;">
    <g transform="matrix(1,0,0,1,3.9583,4.79659)">
        <path d="M16.083,2.217C15.492,2.479 14.857,2.656 14.189,2.736C14.878,2.324 15.394,1.675 15.639,0.91C14.992,1.295 14.283,1.565 13.544,1.71C13.047,1.18 12.389,0.828 11.671,0.71C10.954,0.592 10.218,0.714 9.577,1.057C8.936,1.4 8.426,1.945 8.127,2.608C7.827,3.27 7.755,4.013 7.921,4.721C6.609,4.655 5.326,4.314 4.154,3.72C2.982,3.126 1.949,2.292 1.12,1.273C0.837,1.761 0.674,2.328 0.674,2.932C0.673,3.475 0.807,4.01 1.063,4.489C1.319,4.968 1.689,5.377 2.141,5.679C1.617,5.662 1.105,5.52 0.647,5.266L0.647,5.308C0.647,6.07 0.91,6.809 1.393,7.398C1.875,7.988 2.547,8.393 3.294,8.544C2.808,8.675 2.298,8.695 1.803,8.6C2.014,9.256 2.425,9.829 2.977,10.24C3.53,10.651 4.198,10.879 4.886,10.891C3.717,11.809 2.274,12.307 0.788,12.304C0.524,12.304 0.261,12.289 0,12.258C1.508,13.228 3.264,13.743 5.058,13.741C11.128,13.741 14.447,8.713 14.447,4.353C14.447,4.211 14.443,4.068 14.437,3.926C15.082,3.459 15.639,2.881 16.082,2.219L16.083,2.217Z" style="fill:white;fill-rule:nonzero;"/>
    </g>
</svg>
