<svg width="17" height="14" viewBox="0 0 17 14" fill="none" xmlns="http://www.w3.org/2000/svg">
<path d="M16.0834 2.21692C15.492 2.47901 14.8566 2.65609 14.1886 2.73613C14.8778 2.32374 15.3935 1.67467 15.6393 0.910049C14.9918 1.29467 14.2831 1.5654 13.544 1.71047C13.0471 1.17983 12.3888 0.828114 11.6714 0.709927C10.9541 0.59174 10.2178 0.713693 9.57683 1.05685C8.93589 1.40001 8.42617 1.94518 8.12682 2.60771C7.82746 3.27025 7.75521 4.01308 7.92129 4.72088C6.60924 4.655 5.32569 4.31398 4.15397 3.71994C2.98224 3.1259 1.94851 2.29212 1.11987 1.27272C0.836542 1.76147 0.673625 2.32813 0.673625 2.93163C0.673309 3.47492 0.807098 4.00989 1.06312 4.48907C1.31915 4.96825 1.68949 5.37683 2.14129 5.67855C1.61732 5.66188 1.10491 5.5203 0.646708 5.26559V5.30809C0.646655 6.07007 0.910231 6.80861 1.39271 7.39838C1.87519 7.98815 2.54686 8.39283 3.29375 8.54376C2.80768 8.67531 2.29807 8.69468 1.80342 8.60042C2.01414 9.25607 2.42462 9.8294 2.97739 10.2402C3.53015 10.6509 4.19752 10.8786 4.88608 10.8912C3.71722 11.8088 2.27367 12.3065 0.787667 12.3043C0.524437 12.3044 0.261429 12.289 0 12.2583C1.50838 13.2281 3.26424 13.7428 5.0575 13.7408C11.1279 13.7408 14.4465 8.71305 14.4465 4.35255C14.4465 4.21088 14.4429 4.0678 14.4365 3.92613C15.082 3.45932 15.6392 2.88127 16.082 2.21905L16.0834 2.21692Z" fill="#D7D7D7"/>
</svg>
