<svg width="183" height="39" viewBox="0 0 183 39" fill="none" xmlns="http://www.w3.org/2000/svg">
<g clip-path="url(#clip0_40_15)">
<path d="M53.9834 7.90137C56.3642 7.90137 58.342 8.57527 59.917 9.92309C61.4919 11.2709 62.5541 13.0986 63.1035 15.4062H59.7796C59.3218 14.0993 58.5892 13.068 57.582 12.3124C56.5931 11.5364 55.3752 11.1484 53.9285 11.1484C52.7748 11.1484 51.7401 11.4649 50.8244 12.098C49.927 12.731 49.2128 13.6398 48.6817 14.8242C48.169 15.9883 47.9125 17.3565 47.9125 18.929C47.9125 20.481 48.169 21.8492 48.6817 23.0337C49.2128 24.1977 49.927 25.0963 50.8244 25.7293C51.7401 26.3623 52.7748 26.6789 53.9285 26.6789C55.3752 26.6789 56.5931 26.3011 57.582 25.5455C58.5892 24.7695 59.3218 23.7382 59.7796 22.4516H63.1035C62.5541 24.7593 61.4919 26.587 59.917 27.9348C58.342 29.2622 56.3642 29.9259 53.9834 29.9259C52.1521 29.9259 50.5314 29.4664 49.1212 28.5475C47.7111 27.6081 46.6215 26.3113 45.8523 24.6572C45.0831 22.9826 44.6985 21.0732 44.6985 18.929C44.6985 16.7847 45.0831 14.8855 45.8523 13.2314C46.6215 11.5568 47.7111 10.2498 49.1212 9.31045C50.5314 8.37109 52.1521 7.90137 53.9834 7.90137ZM73.1502 12.6494C74.6155 12.6494 75.934 12.9965 77.1059 13.6908C78.2784 14.3852 79.1936 15.3859 79.8529 16.6928C80.5122 17.9997 80.8418 19.5314 80.8418 21.2876C80.8418 23.0643 80.5122 24.6061 79.8529 25.9131C79.1936 27.22 78.2784 28.2207 77.1059 28.915C75.934 29.6093 74.6155 29.9565 73.1502 29.9565C71.6856 29.9565 70.367 29.6093 69.1945 28.915C68.0407 28.2207 67.1254 27.22 66.4477 25.9131C65.7885 24.5857 65.4588 23.0439 65.4588 21.2876C65.4588 19.5314 65.7885 17.9997 66.4477 16.6928C67.1254 15.3859 68.0407 14.3852 69.1945 13.6908C70.367 12.9965 71.6856 12.6494 73.1502 12.6494ZM73.1502 15.6819C72.3448 15.6819 71.6031 15.8861 70.9251 16.2946C70.2477 16.703 69.6983 17.3361 69.2769 18.1938C68.8742 19.0311 68.6726 20.0623 68.6726 21.2876C68.6726 22.5333 68.8742 23.5748 69.2769 24.4121C69.6983 25.2494 70.2477 25.8722 70.9251 26.2807C71.6031 26.6891 72.3448 26.8933 73.1502 26.8933C73.9562 26.8933 74.6979 26.6891 75.3753 26.2807C76.0533 25.8722 76.5933 25.2494 76.996 24.4121C77.4174 23.5748 77.6278 22.5333 77.6278 21.2876C77.6278 20.0623 77.4174 19.0311 76.996 18.1938C76.5933 17.3361 76.0533 16.703 75.3753 16.2946C74.6979 15.8861 73.9562 15.6819 73.1502 15.6819ZM102.78 12.5881C104.575 12.5881 106.003 13.2211 107.065 14.4873C108.146 15.7534 108.686 17.5607 108.686 19.9092V29.7421H105.554V20.2768C105.554 18.8064 105.225 17.673 104.565 16.8766C103.906 16.0598 102.999 15.6513 101.846 15.6513C100.619 15.6513 99.6387 16.0904 98.9064 16.9685C98.1922 17.8262 97.8351 19.0923 97.8351 20.7669V29.7421H94.7035V20.2768C94.7035 18.8064 94.3738 17.673 93.7146 16.8766C93.0553 16.0598 92.1488 15.6513 90.995 15.6513C89.7682 15.6513 88.788 16.0904 88.0557 16.9685C87.3415 17.8262 86.9844 19.0923 86.9844 20.7669V29.7421H83.8528V12.8638H86.9844V16.3865C87.369 15.1612 88.0102 14.2218 88.9073 13.5683C89.8044 12.9148 90.8577 12.5881 92.0664 12.5881C93.33 12.5881 94.4194 12.9353 95.3353 13.6296C96.2693 14.3239 96.9466 15.3246 97.3681 16.6315C97.8076 15.3654 98.5124 14.375 99.4833 13.6602C100.454 12.9454 101.553 12.5881 102.78 12.5881ZM121.023 12.6494C122.342 12.6494 123.514 12.9965 124.539 13.6908C125.583 14.3852 126.398 15.3859 126.984 16.6928C127.57 17.9997 127.863 19.5314 127.863 21.2876C127.863 23.0643 127.57 24.6061 126.984 25.9131C126.398 27.22 125.583 28.2207 124.539 28.915C123.514 29.6093 122.342 29.9565 121.023 29.9565C119.65 29.9565 118.477 29.5787 117.507 28.8231C116.536 28.0676 115.859 27.0669 115.474 25.8212V37.7677H112.343V12.8638H115.474V16.7847C115.859 15.539 116.536 14.5383 117.507 13.7827C118.477 13.0272 119.65 12.6494 121.023 12.6494ZM120.062 15.7126C119.183 15.7126 118.395 15.9474 117.699 16.4171C117.003 16.8664 116.454 17.5199 116.051 18.3776C115.648 19.2149 115.447 20.1849 115.447 21.2876C115.447 22.4108 115.648 23.391 116.051 24.2283C116.454 25.0656 117.003 25.7191 117.699 26.1888C118.395 26.638 119.183 26.8627 120.062 26.8627C121.453 26.8627 122.57 26.3726 123.413 25.3923C124.255 24.3917 124.677 23.0234 124.677 21.2876C124.677 19.5722 124.255 18.2142 123.413 17.2135C122.57 16.2129 121.453 15.7126 120.062 15.7126ZM136.95 12.6494C138.324 12.6494 139.496 13.0272 140.467 13.7827C141.437 14.5383 142.124 15.539 142.527 16.7847V12.8638H145.658V29.7421H142.527V25.8212C142.124 27.0669 141.437 28.0676 140.467 28.8231C139.496 29.5787 138.324 29.9565 136.95 29.9565C135.632 29.9565 134.451 29.6093 133.407 28.915C132.381 28.2207 131.575 27.22 130.989 25.9131C130.403 24.6061 130.11 23.0643 130.11 21.2876C130.11 19.5314 130.403 17.9997 130.989 16.6928C131.575 15.3859 132.381 14.3852 133.407 13.6908C134.451 12.9965 135.632 12.6494 136.95 12.6494ZM137.912 15.7126C136.52 15.7126 135.403 16.2129 134.561 17.2135C133.736 18.1938 133.324 19.5518 133.324 21.2876C133.324 23.0234 133.736 24.3917 134.561 25.3923C135.403 26.3726 136.52 26.8627 137.912 26.8627C138.791 26.8627 139.578 26.638 140.274 26.1888C140.97 25.7191 141.519 25.0656 141.923 24.2283C142.325 23.391 142.527 22.4108 142.527 21.2876C142.527 20.1849 142.325 19.2149 141.923 18.3776C141.519 17.5199 140.97 16.8664 140.274 16.4171C139.578 15.9474 138.791 15.7126 137.912 15.7126ZM157.877 12.5881C159.635 12.5881 161.045 13.2211 162.108 14.4873C163.17 15.7534 163.701 17.5607 163.701 19.9092V29.7421H160.569V20.2768C160.569 18.7656 160.221 17.6015 159.526 16.7847C158.829 15.9474 157.877 15.5288 156.669 15.5288C155.423 15.5288 154.425 15.978 153.674 16.8766C152.923 17.7547 152.548 19.0515 152.548 20.7669V29.7421H149.417V12.8638H152.548V16.5703C152.951 15.3041 153.628 14.3239 154.581 13.6296C155.533 12.9353 156.632 12.5881 157.877 12.5881ZM169.149 12.8638L173.681 25.2698L177.884 12.8638H181.373L172.225 37.7677H168.737L172.006 29.3439L165.633 12.8638H169.149Z" fill="white"/>
<path d="M34.4709 3.60547H2.20023V35.3598H34.4709V3.60547Z" stroke="white" stroke-width="5.15493"/>
<path d="M25.6698 11.8535H11.0013V26.2873H25.6698V11.8535Z" fill="white"/>
</g>
<defs>
<clipPath id="clip0_40_15">
<rect width="183" height="38.662" fill="white" transform="translate(0 0.168945)"/>
</clipPath>
</defs>
</svg>
