<svg width="100" height="100" viewBox="0 0 100 100" fill="none" xmlns="http://www.w3.org/2000/svg">
<path d="M75 27.5H70V25C69.9987 23.6743 69.4715 22.4033 68.5341 21.4659C67.5967 20.5285 66.3257 20.0013 65 20H35C33.6743 20.0013 32.4033 20.5285 31.4659 21.4659C30.5285 22.4033 30.0013 23.6743 30 25V27.5H25C23.6743 27.5013 22.4033 28.0285 21.4659 28.9659C20.5285 29.9033 20.0013 31.1743 20 32.5V40C20.0033 42.6511 21.0579 45.1928 22.9326 47.0674C24.8072 48.9421 27.3489 49.9967 30 50H30.805C31.8468 53.8268 33.9803 57.2674 36.945 59.9018C39.9097 62.5362 43.5773 64.2504 47.5 64.835V75H35V80H65V75H52.5V64.8275C56.4737 64.3363 60.207 62.6587 63.2128 60.0136C66.2187 57.3686 68.3574 53.8789 69.35 50H70C72.6511 49.9967 75.1928 48.9421 77.0674 47.0674C78.9421 45.1928 79.9967 42.6511 80 40V32.5C79.9987 31.1743 79.4715 29.9033 78.5341 28.9659C77.5967 28.0285 76.3257 27.5013 75 27.5V27.5ZM30 45C28.6743 44.9987 27.4033 44.4715 26.4659 43.5341C25.5285 42.5967 25.0013 41.3257 25 40V32.5H30V45ZM65 45C65 47.0089 64.5964 48.9974 63.8132 50.8474C63.03 52.6974 61.8832 54.3712 60.4408 55.7696C58.9984 57.1679 57.2898 58.2622 55.4164 58.9877C53.543 59.7131 51.543 60.0548 49.535 59.9925C45.5545 59.7447 41.8226 57.9722 39.1155 55.0434C36.4084 52.1147 34.9344 48.2552 35 44.2675V25H65V45ZM75 40C74.9987 41.3257 74.4715 42.5967 73.5341 43.5341C72.5967 44.4715 71.3257 44.9987 70 45V32.5H75V40Z" fill="#EF4848"/>
</svg>
